# xmcd
#
# Track frame offsets:
#	150
#	11909
#	24386
#	38253
#	49908
#	66392
#	80665
#	92340
#	107625
#	121878
#	135320
#	155159
#	168755
#	184564
#
# Disc length: 2655 seconds
#
# Revision: 3
# Processed by: cddbd v1.5.1PL2 Copyright (c) Steve Scherf et al.
# Submitted via: audiograbber 1.83.01
#
DISCID=a70a5d0e
DTITLE=Country - Country
DYEAR=2005
DGENRE=Country
TTITLE0=Johnny Cash - Ring of fire
TTITLE1=Sammy Davis - What I've got in mind
TTITLE2=Roy Drusky - Vaya con dios
TTITLE3=Don Gibson - I can't stop loving you
TTITLE4=L. Hazelwood and N. Sinatra - Summerwine
TTITLE5=Dean Martin - Green, green grass of home
TTITLE6=Roger Miller - Open up your heart
TTITLE7=Bellamy Brothers - I need more of you
TTITLE8=Glenn Camphell - Rhinestone Cowboy
TTITLE9=Carpenters - Top of the world
TTITLE10=Arlo Guthrie - City of New Orleans
TTITLE11=Kris Kristofferson - Lover please
TTITLE12=Dean Martin - Detroit City
TTITLE13=Olivia Newton-John - The banks of the Ohio
EXTD=
EXTT0=
EXTT1=
EXTT2=
EXTT3=
EXTT4=
EXTT5=
EXTT6=
EXTT7=
EXTT8=
EXTT9=
EXTT10=
EXTT11=
EXTT12=
EXTT13=
PLAYORDER=
